<svg xmlns="http://www.w3.org/2000/svg" width="100%" height="100%" viewBox="0 0 1200 300"><defs><linearGradient id="bg" x1="0%" x2="100%" y1="0%" y2="100%"><stop offset="0%" stop-color="#0f172a"/><stop offset="50%" stop-color="#1e1b4b"/><stop offset="100%" stop-color="#0f172a"/></linearGradient><linearGradient id="accent" x1="0%" x2="100%" y1="0%" y2="0%"><stop offset="0%" stop-color="#38bdf8"/><stop offset="50%" stop-color="#818cf8"/><stop offset="100%" stop-color="#c084fc"/></linearGradient><linearGradient id="cardBg" x1="0%" x2="0%" y1="0%" y2="100%"><stop offset="0%" stop-color="#fff" stop-opacity=".07"/><stop offset="100%" stop-color="#fff" stop-opacity=".02"/></linearGradient><filter id="glow" width="140%" height="140%" x="-20%" y="-20%"><feGaussianBlur result="blur" stdDeviation="8"/><feComposite in="SourceGraphic" in2="blur" operator="over"/></filter></defs><style>@keyframes pulse{0%{transform:scale(1);opacity:.3}50%{transform:scale(1.08);opacity:.6}}@keyframes float{0%{transform:translateY(0)}50%{transform:translateY(-6px)}}.badge-text,.stat-lbl,.stat-val,.subtitle,.title{font-family:&apos;Segoe UI&apos;,system-ui,-apple-system,sans-serif}.title{font-weight:800;font-size:44px;fill:#fff}.subtitle{font-weight:400;font-size:20px;fill:#94a3b8}.badge-text{font-weight:600;font-size:14px;fill:#38bdf8}.stat-val{font-weight:700;font-size:22px;fill:#f8fafc}.stat-lbl{font-weight:500;font-size:12px;fill:#64748b}.pulsing-orb{animation:pulse 6s infinite ease-in-out;transform-origin:center}.animated-line{stroke-dasharray:8 6;animation:dash 2s linear infinite}.floating-card{animation:float 4s infinite ease-in-out}</style><rect width="1200" height="300" fill="url(#bg)" rx="16"/><circle cx="150" cy="80" r="140" fill="#0284c7" class="pulsing-orb" filter="url(#glow)" opacity=".25"/><circle cx="1050" cy="220" r="160" fill="#6366f1" class="pulsing-orb" filter="url(#glow)" opacity=".2" style="animation-delay:-3s"/><path fill="none" stroke="#38bdf8" stroke-width="2" d="M0,220 Q 300,160 600,240 T 1200,180" class="animated-line" opacity=".2"/><path fill="none" stroke="#818cf8" stroke-width="1.5" d="M0,240 Q 300,280 600,200 T 1200,230" opacity=".15"/><rect width="1200" height="6" x="0" y="0" fill="url(#accent)"/><g transform="translate(60, 85)"><rect width="230" height="32" x="0" y="0" fill="#1e293b" stroke="#334155" stroke-width="1" rx="16"/><circle cx="16" cy="16" r="5" fill="#38bdf8"/><text x="30" y="21" class="badge-text">CURATED AWESOME LIST</text><text x="0" y="80" class="title">Awesome Financial Management ERP</text><text x="0" y="118" class="subtitle">General Ledger • Accounts Payable &amp; Receivable • Multi-Currency • Financial Close</text></g><g class="floating-card" transform="translate(850, 60)"><rect width="280" height="75" x="0" y="0" fill="url(#cardBg)" stroke="#334155" stroke-width="1" rx="12"/><text x="20" y="34" class="stat-val">SaaS &amp; Open Source</text><text x="20" y="55" class="stat-lbl">Enterprise &amp; SMB Financial Tech Stack</text><circle cx="245" cy="38" r="16" fill="#38bdf8" opacity=".15"/><path fill="none" stroke="#38bdf8" stroke-linecap="round" stroke-width="2" d="M239,38 L243,42 L251,34"/></g><g class="floating-card" transform="translate(850, 155)" style="animation-delay:-2s"><rect width="280" height="75" x="0" y="0" fill="url(#cardBg)" stroke="#334155" stroke-width="1" rx="12"/><text x="20" y="34" class="stat-val">$30B+ Market</text><text x="20" y="55" class="stat-lbl">Global Financial Management &amp; ERP</text><circle cx="245" cy="38" r="16" fill="#c084fc" opacity=".15"/><path fill="none" stroke="#c084fc" stroke-linecap="round" stroke-width="2" d="M240,43 L245,33 L250,38"/></g></svg>